<svg xmlns="http://www.w3.org/2000/svg" width="127.082" height="128" viewBox="0 0 127.082 128"><defs><style>.a{fill:#454142;}.b{fill:#331fe6;}</style></defs><g transform="translate(-1514.674 -493)"><circle class="a" cx="4.5" cy="4.5" r="4.5" transform="translate(1539.756 519)"/><ellipse class="a" cx="4.5" cy="5" rx="4.5" ry="5" transform="translate(1539.756 565)"/><ellipse class="a" cx="4.5" cy="5" rx="4.5" ry="5" transform="translate(1539.756 611)"/><ellipse class="a" cx="5" cy="4.5" rx="5" ry="4.5" transform="translate(1585.756 519)"/><circle class="a" cx="5" cy="5" r="5" transform="translate(1585.756 565)"/><circle class="a" cx="5" cy="5" r="5" transform="translate(1585.756 611)"/><ellipse class="a" cx="5" cy="4.5" rx="5" ry="4.5" transform="translate(1631.756 519)"/><circle class="a" cx="5" cy="5" r="5" transform="translate(1631.756 565)"/><circle class="a" cx="5" cy="5" r="5" transform="translate(1631.756 611)"/><rect class="b" width="9" height="63" rx="4" transform="translate(1539.756 493)"/><rect class="b" width="9.532" height="59.441" rx="4" transform="translate(1574.115 519.553) rotate(90)"/></g></svg>