<svg xmlns="http://www.w3.org/2000/svg" width="120.779" height="62.496" viewBox="0 0 120.779 62.496"><defs><style>.a{fill:#f80b74;}</style></defs><path class="a" d="M317.978,449.784a31.03,31.03,0,0,0-25.218,3.931A43.747,43.747,0,0,0,283.1,463.7a42.078,42.078,0,0,0-3.07,5.206c-4.45,7.785-8.462,14.065-11.564,18.7-2.356,3.524-3.93,5.716-6.807,7.658-1.094.738-7.322,4.779-14.366,3.3C238.163,496.656,230.163,486,232.62,475.3a19.359,19.359,0,0,1,16.373-14.612,19.918,19.918,0,0,1,20.762,12.755l7.208-10.812a31.359,31.359,0,0,0-34.439-13.349c-14.1,3.894-23.278,17.457-22.559,31.669a31.363,31.363,0,0,0,23.349,28.7c14.571,3.669,30.308-4.069,36.72-18.586a31.84,31.84,0,0,0,32.837,19.422A31.422,31.422,0,0,0,340.5,483.251C342.362,467.289,331.155,453.569,317.978,449.784Zm11.435,31.381c-.861,11.38-11.952,16.3-12.492,16.531a18.914,18.914,0,0,1-12.545.951,19.173,19.173,0,0,1-6.856-3.866,30.424,30.424,0,0,1-7.608-9.327,39.776,39.776,0,0,1-2.737-5.782,47.921,47.921,0,0,1,4.8-8.724,27.808,27.808,0,0,1,5.544-6.385,17.654,17.654,0,0,1,19.4-2.914C323.4,464.435,330.123,471.785,329.413,481.165Z" transform="translate(-219.926 -448.19)"/></svg>