<svg xmlns="http://www.w3.org/2000/svg" width="235.152" height="43.5" viewBox="0 0 235.152 43.5"><defs><style>.a{fill:#fff;}</style></defs><g transform="translate(-219.926 -448.19)"><path class="a" d="M288.175,449.3a21.6,21.6,0,0,0-17.553,2.736,30.45,30.45,0,0,0-6.721,6.947,29.287,29.287,0,0,0-2.137,3.624c-3.1,5.418-5.89,9.79-8.049,13.019-1.64,2.453-2.735,3.979-4.738,5.331-.761.514-5.1,3.327-10,2.3-6.357-1.331-11.926-8.751-10.215-16.2a13.475,13.475,0,0,1,11.4-10.171,13.864,13.864,0,0,1,14.451,8.878l5.017-7.526A21.6,21.6,0,1,0,236.2,490.967c10.142,2.554,21.1-2.832,25.559-12.937a22.162,22.162,0,0,0,22.856,13.518,21.872,21.872,0,0,0,19.233-18.954C305.147,461.484,297.346,451.934,288.175,449.3Zm7.959,21.842c-.6,7.921-8.319,11.347-8.7,11.506a13.165,13.165,0,0,1-8.732.662,13.345,13.345,0,0,1-4.772-2.691,21.176,21.176,0,0,1-5.3-6.492,27.687,27.687,0,0,1-1.905-4.024,33.356,33.356,0,0,1,3.342-6.073,19.356,19.356,0,0,1,3.859-4.444,12.288,12.288,0,0,1,13.5-2.029C291.947,459.5,296.629,464.613,296.134,471.142Z" transform="translate(0 0)"/><path class="a" d="M449.362,466.143c-6.683-1.492-8.413-2.685-8.413-5.549,0-2.924,2.148-4.415,5.787-4.415,5.311,0,6.682,2.744,7.16,5.31h8.95c-.6-6.026-4.952-11.874-15.871-11.874-9.726,0-15.1,4.833-15.1,11.993,0,5.549,2.745,9.666,13.962,12.291,7.041,1.611,9.01,3.043,9.01,6.444,0,2.983-2.029,4.892-6.8,4.892s-7.7-1.85-8.652-5.967h-8.95c.955,7.518,6.5,12.65,16.945,12.65,10.859,0,16.527-5.191,16.527-12.65C463.921,473.422,461.3,469.007,449.362,466.143Z" transform="translate(-122.144 -0.827)"/><path class="a" d="M547.885,481.347h-.06c-1.253-6.086-4.833-19.57-8.055-30.31H526.525v41.11h8.114V477.409c0-7.041-.179-15.513-.537-20.346h.3c1.79,8.234,6.026,23.807,9.069,35.084h7.577c3.938-12.888,8.055-26.551,9.964-34.964h.3c-.179,4.654-.3,12.53-.3,19.511v15.453H569.6v-41.11H556.835C553.374,461.538,548.9,475.977,547.885,481.347Z" transform="translate(-177.888 -1.652)"/><rect class="a" width="8.89" height="41.11" transform="translate(401.499 449.385)"/><path class="a" d="M711.667,484.938c-7.935,0-10.382-7.339-10.382-14.26,0-7.518,2.8-14.141,10.143-14.141,5.609,0,7.817,3.162,8.711,6.384h8.89c-1.014-6.921-6.324-13.306-17.3-13.306-13.246,0-19.63,10.084-19.63,21.36,0,11.695,6.145,20.943,19.212,20.943,10.322,0,16.11-5.609,17.721-13.306h-8.95C719.3,481.059,717.515,484.938,711.667,484.938Z" transform="translate(-273.952 -0.827)"/></g></svg>