<svg xmlns="http://www.w3.org/2000/svg" width="74.047" height="68.445" viewBox="0 0 74.047 68.445"><defs><style>.a{fill:#fff;}</style></defs><g transform="translate(-2748.427 -4142)"><path class="a" d="M2884.706,4236a20.706,20.706,0,1,0,20.706,20.706A20.73,20.73,0,0,0,2884.706,4236Zm0,38.537a17.83,17.83,0,1,1,17.831-17.831A17.851,17.851,0,0,1,2884.706,4274.537Z" transform="translate(-98.954 -80.483)"/><path class="a" d="M3006.532,4301.883h-5.656v-10a1.438,1.438,0,1,0-2.876,0v11.439a1.438,1.438,0,0,0,1.438,1.438h7.094a1.438,1.438,0,0,0,0-2.876Z" transform="translate(-213.686 -127.099)"/><path class="a" d="M2844.805,4423.07l-3.027-7.19a1.438,1.438,0,0,0-2.095-.656l-6.717,4.257a1.438,1.438,0,0,0,1.54,2.429l3.495-2.215a31.355,31.355,0,0,1-60.513-3.4,1.438,1.438,0,0,0-2.817.577,34.23,34.23,0,0,0,66.023,3.843l1.462,3.473a1.438,1.438,0,1,0,2.651-1.116Z" transform="translate(-22.444 -233.745)"/><path class="a" d="M2752.881,4171.949a1.451,1.451,0,0,0,.362.046,1.434,1.434,0,0,0,.829-.263l6.5-4.582a1.438,1.438,0,1,0-1.657-2.35l-3.128,2.205a31.355,31.355,0,0,1,60.675,2.892,1.438,1.438,0,0,0,1.407,1.149,1.405,1.405,0,0,0,.29-.029,1.438,1.438,0,0,0,1.12-1.7,34.232,34.232,0,0,0-66.362-2.764l-1.754-3.652a1.438,1.438,0,1,0-2.593,1.245l3.377,7.032A1.438,1.438,0,0,0,2752.881,4171.949Z"/></g></svg>