<svg xmlns="http://www.w3.org/2000/svg" width="307.757" height="87.251" viewBox="0 0 307.757 87.251"><defs><style>.a{fill:#454142;}.b,.c{fill:#fff;}.c{fill-rule:evenodd;}</style></defs><rect class="a" width="307.757" height="87.251" rx="10" transform="translate(0 0)"/><g transform="translate(53.206 16.699)"><g transform="translate(64.96 5.458)"><g transform="translate(0.265)"><path class="b" d="M158.882,46.026,157.9,49h-1.256l3.206-9.45h1.473L164.542,49h-1.3l-1.011-2.978Zm3.1-.953-.937-2.711c-.2-.626-.339-1.179-.48-1.727h-.041c-.128.549-.279,1.133-.463,1.712l-.923,2.726Z" transform="translate(-156.642 -39.051)"/><path class="b" d="M167.151,42.67l1.33,3.8a18.239,18.239,0,0,1,.548,1.753h.041c.157-.564.349-1.122.577-1.753l1.314-3.8h1.292l-2.663,6.79h-1.179l-2.581-6.79Z" transform="translate(-157.988 -39.508)"/><path class="b" d="M179.091,47.8a11.637,11.637,0,0,0,.1,1.63h-1.108l-.114-.861h-.041a2.5,2.5,0,0,1-2.077,1.01,1.93,1.93,0,0,1-2.07-1.948c0-1.634,1.458-2.537,4.08-2.521V44.97a1.4,1.4,0,0,0-1.541-1.569,3.267,3.267,0,0,0-1.781.508l-.282-.83a4.471,4.471,0,0,1,2.24-.589c2.091,0,2.593,1.419,2.593,2.777Zm-1.2-1.834c-1.348-.031-2.872.2-2.872,1.527a1.082,1.082,0,0,0,1.151,1.179,1.708,1.708,0,0,0,1.665-1.133,1.243,1.243,0,0,0,.056-.4Z" transform="translate(-159.153 -39.481)"/><path class="b" d="M182.795,40.939a.8.8,0,1,1,.015,0Zm-.592,8.036v-6.79h1.238v6.79Z" transform="translate(-160.361 -39.022)"/><path class="b" d="M186,38.965h1.235v9.953H186Z" transform="translate(-160.942 -38.965)"/><path class="b" d="M194.444,47.8a11.666,11.666,0,0,0,.1,1.63h-1.108l-.115-.861h-.036a2.515,2.515,0,0,1-2.078,1.01,1.931,1.931,0,0,1-2.075-1.948c0-1.634,1.458-2.537,4.081-2.521V44.97a1.4,1.4,0,0,0-1.545-1.569,3.275,3.275,0,0,0-1.779.508l-.279-.83a4.467,4.467,0,0,1,2.242-.589c2.086,0,2.593,1.419,2.593,2.777Zm-1.2-1.834c-1.345-.031-2.875.2-2.875,1.527a1.081,1.081,0,0,0,1.15,1.179,1.709,1.709,0,0,0,1.668-1.133,1.344,1.344,0,0,0,.056-.4Z" transform="translate(-161.402 -39.481)"/><path class="b" d="M197.58,38.965h1.232v4.243h.028a2.514,2.514,0,0,1,2.311-1.234c1.681,0,2.86,1.4,2.86,3.449,0,2.439-1.543,3.644-3.057,3.644a2.435,2.435,0,0,1-2.268-1.271h-.028l-.072,1.122h-1.063c.041-.472.056-1.153.056-1.758Zm1.232,7.232a2.087,2.087,0,0,0,.044.446,1.911,1.911,0,0,0,1.848,1.445c1.3,0,2.06-1.051,2.06-2.6,0-1.379-.7-2.542-2.019-2.542a1.951,1.951,0,0,0-1.863,1.512,2.047,2.047,0,0,0-.069.523Z" transform="translate(-162.631 -38.965)"/><path class="b" d="M206.846,38.965h1.235v9.953h-1.235Z" transform="translate(-163.997 -38.965)"/><path class="b" d="M211.223,46.249a2.161,2.161,0,0,0,2.311,2.352,4.652,4.652,0,0,0,1.881-.338l.223.871a5.547,5.547,0,0,1-2.27.435,3.169,3.169,0,0,1-3.336-3.423c0-2.055,1.219-3.67,3.195-3.67,2.215,0,2.788,1.948,2.788,3.193a3.188,3.188,0,0,1-.041.59Zm3.6-.887a1.758,1.758,0,0,0-1.7-2,2.028,2.028,0,0,0-1.889,2Z" transform="translate(-164.464 -39.48)"/><path class="b" d="M224.828,49.583a3.232,3.232,0,0,1-3.252-3.485,3.323,3.323,0,0,1,3.362-3.608,3.213,3.213,0,0,1,3.266,3.48,3.322,3.322,0,0,1-3.365,3.613Zm.04-.923c1.176,0,2.058-1.107,2.058-2.649,0-1.153-.571-2.593-2.029-2.593s-2.073,1.348-2.073,2.634c0,1.491.837,2.608,2.03,2.608Z" transform="translate(-166.155 -39.481)"/><path class="b" d="M231.074,44.484c0-.713-.018-1.272-.059-1.84h1.094l.069,1.112h.028a2.516,2.516,0,0,1,2.245-1.266c.935,0,2.393.563,2.393,2.89v4.054h-1.232V45.523c0-1.1-.405-2.019-1.568-2.019a1.772,1.772,0,0,0-1.656,1.261,1.8,1.8,0,0,0-.082.574v4.1h-1.232Z" transform="translate(-167.538 -39.481)"/><path class="b" d="M244.864,40.766v1.625h1.761v.943h-1.761v3.654c0,.846.239,1.317.925,1.317a2.308,2.308,0,0,0,.715-.082l.054.943a3.568,3.568,0,0,1-1.092.164,1.765,1.765,0,0,1-1.335-.518,2.662,2.662,0,0,1-.476-1.778v-3.7h-1.048v-.943h1.048V41.146Z" transform="translate(-169.236 -39.229)"/><path class="b" d="M248.861,38.965h1.232v4.228h.029a2.232,2.232,0,0,1,.886-.866,2.342,2.342,0,0,1,1.259-.353c.914,0,2.368.563,2.368,2.905v4.039H253.4v-3.9c0-1.108-.408-2.02-1.569-2.02a1.782,1.782,0,0,0-1.653,1.231,1.515,1.515,0,0,0-.087.594v4.1h-1.232Z" transform="translate(-170.152 -38.965)"/><path class="b" d="M258.509,46.249a2.162,2.162,0,0,0,2.311,2.352,4.635,4.635,0,0,0,1.879-.338l.225.871a5.569,5.569,0,0,1-2.273.435,3.169,3.169,0,0,1-3.334-3.423c0-2.055,1.22-3.67,3.193-3.67,2.214,0,2.793,1.948,2.793,3.193a3.129,3.129,0,0,1-.044.59Zm3.6-.887a1.758,1.758,0,0,0-1.7-2,2.031,2.031,0,0,0-1.894,2Z" transform="translate(-171.391 -39.48)"/><path class="b" d="M269.993,40.939a.807.807,0,1,1,.01,0Zm-.589,8.036v-6.79h1.229v6.79Z" transform="translate(-173.135 -39.022)"/><path class="b" d="M273.242,39.664a12.547,12.547,0,0,1,2.342-.195,3.9,3.9,0,0,1,2.648.784,2.557,2.557,0,0,1,.84,1.984,2.708,2.708,0,0,1-.745,2.013,3.9,3.9,0,0,1-2.883,1.036,4.179,4.179,0,0,1-.982-.082v3.787h-1.22Zm1.22,4.547a4.4,4.4,0,0,0,1.01.092c1.483,0,2.368-.728,2.368-2s-.885-1.861-2.227-1.861a6.936,6.936,0,0,0-1.151.092Z" transform="translate(-173.724 -39.039)"/><path class="b" d="M281.766,38.965H283v4.228h.028a2.213,2.213,0,0,1,.879-.866,2.357,2.357,0,0,1,1.263-.353c.912,0,2.368.563,2.368,2.905v4.039h-1.233v-3.9c0-1.108-.408-2.02-1.571-2.02a1.78,1.78,0,0,0-1.65,1.231,1.5,1.5,0,0,0-.084.594v4.1h-1.235Z" transform="translate(-174.973 -38.965)"/><path class="b" d="M293.474,49.583A3.233,3.233,0,0,1,290.22,46.1a3.324,3.324,0,0,1,3.365-3.608,3.211,3.211,0,0,1,3.265,3.48,3.322,3.322,0,0,1-3.362,3.613Zm.044-.923c1.174,0,2.055-1.107,2.055-2.649,0-1.153-.574-2.593-2.03-2.593s-2.078,1.348-2.078,2.634c0,1.491.843,2.608,2.035,2.608Z" transform="translate(-176.212 -39.481)"/><path class="b" d="M299.718,44.484c0-.713-.012-1.272-.056-1.84h1.094l.068,1.112h.028a2.513,2.513,0,0,1,2.24-1.266c.941,0,2.4.563,2.4,2.89v4.054h-1.233V45.523c0-1.1-.407-2.019-1.57-2.019a1.777,1.777,0,0,0-1.655,1.261,1.848,1.848,0,0,0-.085.574v4.1h-1.231Z" transform="translate(-177.595 -39.481)"/><path class="b" d="M309.374,46.249a2.163,2.163,0,0,0,2.311,2.352,4.618,4.618,0,0,0,1.876-.338l.225.871a5.55,5.55,0,0,1-2.268.435,3.17,3.17,0,0,1-3.339-3.423c0-2.055,1.222-3.67,3.2-3.67,2.214,0,2.79,1.948,2.79,3.193a3.184,3.184,0,0,1-.041.59Zm3.6-.887a1.754,1.754,0,0,0-1.693-2,2.028,2.028,0,0,0-1.894,2Z" transform="translate(-178.843 -39.48)"/></g><g transform="translate(0 15.959)"><path class="b" d="M164.64,58.114l-8.308,24.46h3.806l2.483-7.507h8.041l2.552,7.507h3.913l-8.345-24.46Zm1.973,4.028c.282,1.086.581,2.224.971,3.444l2.239,6.488h-6.37l2.206-6.524C166,64.49,166.316,63.341,166.613,62.142Z" transform="translate(-156.332 -57.729)"/><path class="b" d="M191.675,65.547a6.93,6.93,0,0,0-5.883,2.824l-.144-2.434H182.26l.018.307c.1,1.517.144,3.183.144,5.581V90.675h3.7V81.88a6.5,6.5,0,0,0,5.058,2.178,7.65,7.65,0,0,0,5.607-2.388,10.126,10.126,0,0,0,2.475-7.114,9.852,9.852,0,0,0-2.15-6.5A7.048,7.048,0,0,0,191.675,65.547Zm-.923,3.065c3.3,0,4.776,3.055,4.776,6.084,0,3.91-1.883,6.329-4.914,6.329a4.481,4.481,0,0,1-4.359-3.428,4.7,4.7,0,0,1-.131-1.2V73.419a5.685,5.685,0,0,1,.115-.912c.02-.1.038-.2.054-.3A4.691,4.691,0,0,1,190.752,68.612Z" transform="translate(-160.131 -58.818)"/><path class="b" d="M214,65.547a6.939,6.939,0,0,0-5.887,2.824l-.143-2.434h-3.385l.021.307c.1,1.522.143,3.183.143,5.581V90.675h3.7V81.88a6.5,6.5,0,0,0,5.056,2.178,7.66,7.66,0,0,0,5.611-2.388,10.133,10.133,0,0,0,2.473-7.114,9.866,9.866,0,0,0-2.15-6.5A7.049,7.049,0,0,0,214,65.547Zm-.917,3.065c3.293,0,4.771,3.055,4.771,6.084,0,3.91-1.883,6.329-4.914,6.329a4.484,4.484,0,0,1-4.361-3.428,4.827,4.827,0,0,1-.128-1.2V73.419a5.465,5.465,0,0,1,.115-.917c.02-.1.038-.195.054-.3A4.69,4.69,0,0,1,213.086,68.612Z" transform="translate(-163.402 -58.818)"/><path class="b" d="M242.079,68.415c-3.454-1.332-4.559-2.388-4.559-4.331,0-1.64,1.3-3.29,4.205-3.29a8.406,8.406,0,0,1,4.343,1.092l.313.195,1.047-3.091-.207-.118a10.719,10.719,0,0,0-5.389-1.209c-4.717,0-8.015,2.782-8.015,6.775,0,3.213,2.063,5.458,6.493,7.072,3.141,1.174,4.31,2.379,4.31,4.438,0,2.333-1.8,3.783-4.705,3.783a10.16,10.16,0,0,1-5.332-1.512l-.32-.2-1,3.157.183.117a12.624,12.624,0,0,0,6.254,1.615c6.36,0,8.618-3.879,8.618-7.205C248.324,72.279,246.513,70.168,242.079,68.415Z" transform="translate(-167.604 -57.663)"/><path class="b" d="M257.635,61.068,254,62.211v3.07h-2.654v2.951H254v9.062c0,2.193.42,3.731,1.281,4.7a4.765,4.765,0,0,0,3.582,1.4,8.745,8.745,0,0,0,2.863-.446l.2-.073-.177-2.962-.353.108a5.615,5.615,0,0,1-1.725.2c-1.432,0-2.042-.9-2.042-3.034V68.232H262.1V65.281h-4.461Z" transform="translate(-170.252 -58.162)"/><path class="b" d="M273.177,65.547c-5.18,0-8.794,3.865-8.794,9.394,0,5.366,3.5,9.117,8.512,9.117h.033c4.236,0,8.794-2.952,8.794-9.435a9.373,9.373,0,0,0-2.357-6.551A8.255,8.255,0,0,0,273.177,65.547Zm-.106,2.922c3.329,0,4.844,3.249,4.844,6.263,0,3.71-2.069,6.405-4.915,6.405h-.033c-2.808,0-4.845-2.654-4.845-6.3C268.121,71.667,269.651,68.469,273.072,68.469Z" transform="translate(-172.162 -58.818)"/><path class="b" d="M296.395,65.716l-.218-.055a3.735,3.735,0,0,0-.923-.114,5.282,5.282,0,0,0-4.638,2.978l-.11-2.588h-3.318l.021.307c.1,1.465.138,3.116.138,5.335l-.036,12.084h3.7V74.234a9.255,9.255,0,0,1,.1-1.435c.418-2.265,1.943-3.731,3.893-3.731a8.245,8.245,0,0,1,.994.067l.392.041Z" transform="translate(-175.503 -58.818)"/><path class="b" d="M306.293,65.506c-4.928,0-8.372,3.941-8.372,9.568,0,5.427,3.426,8.938,8.725,8.938a14.12,14.12,0,0,0,5.857-1.122l.224-.1-.71-2.758-.311.129a11.468,11.468,0,0,1-4.638.83c-1.606,0-5.315-.527-5.539-5.366l11.943.036.046-.236a7.92,7.92,0,0,0,.113-1.547C313.631,70.015,311.707,65.506,306.293,65.506Zm-.252,2.813a3.639,3.639,0,0,1,2.719,1.04,5.248,5.248,0,0,1,1.273,3.439H301.6C301.939,70.661,303.274,68.319,306.041,68.319Z" transform="translate(-177.075 -58.812)"/></g></g><g transform="translate(0 0)"><path class="c" d="M112.053,40.77a11.5,11.5,0,0,0,2.689-8.2,11.345,11.345,0,0,0-7.567,3.915,10.6,10.6,0,0,0-2.7,7.933A9.578,9.578,0,0,0,112.053,40.77Z" transform="translate(-83.764 -32.57)"/><path class="c" d="M116.067,66.759H80.539l0-.01h35.477v-.082a11.543,11.543,0,0,1-.871-6.263v-.072h0a10.569,10.569,0,0,1,3.469-6.5.438.438,0,0,0,.055-.046v-.005h.006a15.192,15.192,0,0,1,1.788-1.481,11.631,11.631,0,0,0-9.486-5.043c-3.705-.318-7.549,2.343-9.62,2.286-2.007.057-5.036-2.342-8.235-2.188l-.031-.005c-.07,0-.646.031-.646.031a12.084,12.084,0,0,0-10.129,6.386v.015h-.013v-.015a18.533,18.533,0,0,0-2,6.565v.1a31.635,31.635,0,0,0,.22,6.324.232.232,0,0,1,.015.072h0a31.826,31.826,0,0,0,1.63,6.324v.02h0a39.493,39.493,0,0,0,3.341,6.53v.009h.01c2.173,3.116,4.728,6.627,8.1,6.473,3.257-.123,4.456-2.163,8.38-2.132,3.92-.031,5,2.035,8.438,2.05,3.505-.154,5.676-3.269,7.849-6.391a34.386,34.386,0,0,0,3.326-6.539h.005c.064-.195.166-.5.236-.712C119.552,71.807,116.967,68.773,116.067,66.759Z" transform="translate(-80.221 -34.718)"/></g></g></svg>