<svg xmlns="http://www.w3.org/2000/svg" width="180.137" height="33.323" viewBox="0 0 180.137 33.323"><defs><style>.a{fill:#454142;}</style></defs><g transform="translate(-219.926 -448.189)"><path class="a" d="M272.208,449.04a16.546,16.546,0,0,0-13.446,2.1,23.326,23.326,0,0,0-5.149,5.322,22.437,22.437,0,0,0-1.637,2.776c-2.373,4.151-4.512,7.5-6.166,9.973a13.047,13.047,0,0,1-3.63,4.083,9.955,9.955,0,0,1-15.485-10.647,10.322,10.322,0,0,1,8.73-7.791,10.62,10.62,0,0,1,11.07,6.8l3.843-5.765A16.546,16.546,0,1,0,232.4,480.959a17.107,17.107,0,0,0,19.579-9.91A16.977,16.977,0,0,0,269.485,481.4a16.755,16.755,0,0,0,14.733-14.52C285.209,458.374,279.234,451.058,272.208,449.04Zm6.1,16.732c-.459,6.068-6.373,8.692-6.661,8.814a10.085,10.085,0,0,1-6.689.507,10.223,10.223,0,0,1-3.656-2.061,16.222,16.222,0,0,1-4.057-4.973,21.21,21.21,0,0,1-1.459-3.083,25.555,25.555,0,0,1,2.56-4.652,14.829,14.829,0,0,1,2.956-3.4,9.413,9.413,0,0,1,10.345-1.554C275.1,456.852,278.684,460.771,278.305,465.772Z" transform="translate(0 0)"/><path class="a" d="M444.937,462.276c-5.119-1.143-6.445-2.057-6.445-4.251,0-2.24,1.645-3.382,4.433-3.382,4.068,0,5.119,2.1,5.485,4.068h6.856c-.457-4.616-3.794-9.1-12.158-9.1-7.45,0-11.564,3.7-11.564,9.187,0,4.251,2.1,7.4,10.7,9.416,5.393,1.234,6.9,2.331,6.9,4.936,0,2.285-1.554,3.748-5.211,3.748s-5.9-1.417-6.628-4.571h-6.856c.731,5.759,4.982,9.69,12.981,9.69,8.318,0,12.661-3.977,12.661-9.69C456.09,467.852,454.078,464.47,444.937,462.276Z" transform="translate(-142.821 -0.967)"/><path class="a" d="M542.888,474.256h-.046c-.96-4.662-3.7-14.992-6.171-23.219H526.525v31.492h6.216v-11.29c0-5.393-.137-11.884-.411-15.586h.229c1.371,6.308,4.616,18.237,6.947,26.876h5.8c3.017-9.872,6.171-20.339,7.633-26.784h.229c-.137,3.565-.229,9.6-.229,14.946v11.838h6.582V451.037h-9.781C547.093,459.081,543.665,470.142,542.888,474.256Z" transform="translate(-208.001 -1.932)"/><rect class="a" width="6.81" height="31.492" transform="translate(359.019 449.105)"/><path class="a" d="M707.089,476.674c-6.079,0-7.953-5.622-7.953-10.924,0-5.759,2.148-10.833,7.77-10.833,4.3,0,5.988,2.422,6.673,4.891h6.81c-.777-5.3-4.845-10.193-13.255-10.193-10.147,0-15.037,7.724-15.037,16.363,0,8.959,4.708,16.043,14.718,16.043,7.907,0,12.341-4.3,13.575-10.193h-6.856C712.939,473.7,711.568,476.674,707.089,476.674Z" transform="translate(-320.326 -0.967)"/></g></svg>