<svg xmlns="http://www.w3.org/2000/svg" width="99.697" height="68.72" viewBox="0 0 99.697 68.72"><defs><style>.a{fill:#fff;}</style></defs><g transform="translate(-3466.431 -4142)"><path class="a" d="M3564.684,4207.833h-5.931a6.63,6.63,0,0,0-1.748-9.248l2.813-7.113a1.444,1.444,0,0,0-1.343-1.975h-7.94a1.444,1.444,0,0,0,0,2.888h5.817l-2.032,5.135a6.72,6.72,0,0,0-1.042-.083,6.607,6.607,0,0,0-3.959,1.313l-6.962-6.014-.028-.022-.054-.043-.062-.043-.05-.032c-.028-.017-.056-.032-.085-.047l-.029-.016-.006,0a1.247,1.247,0,0,0-.126-.054c-.016-.006-.032-.01-.048-.016l-.08-.025-.077-.018-.053-.011-.084-.012-.048,0-.085,0h-9.962a1.444,1.444,0,0,0,0,2.888h7.618l-1.153,2.352a6.637,6.637,0,0,0-7.031,10.208h-6.219v-54.994A10.851,10.851,0,0,0,3513.855,4142h-27.119a10.851,10.851,0,0,0-10.839,10.839v54.994h-8.022a1.444,1.444,0,1,0,0,2.887h96.81a1.444,1.444,0,1,0,0-2.887Zm-7.651-3.753a3.754,3.754,0,1,1-7.319-1.173l2.622,2.265a1.441,1.441,0,0,0,.944.352,1.425,1.425,0,0,0,.344-.042,1.443,1.443,0,0,0,1-.87l1.274-3.22A3.743,3.743,0,0,1,3557.033,4204.079Zm-3.822-3.752-.526,1.33-1.083-.935A3.73,3.73,0,0,1,3553.21,4200.327Zm-11.325-4.183,5.545,4.79a6.625,6.625,0,0,0,.373,6.9h-5.942a6.628,6.628,0,0,0-1.327-8.935Zm-9.251,7.935a3.758,3.758,0,0,1,3.753-3.754c.077,0,.153,0,.229.008l-1.525,3.11a1.444,1.444,0,1,0,2.593,1.271l1.524-3.108a3.753,3.753,0,1,1-6.573,2.474Zm-35.731,3.753v-12.56h6.785v12.56Zm9.672,0v-14a1.444,1.444,0,0,0-1.443-1.444h-9.673a1.444,1.444,0,0,0-1.444,1.444v14h-15.231v-54.994a7.96,7.96,0,0,1,7.951-7.952h27.119a7.961,7.961,0,0,1,7.951,7.952v54.994Z" transform="translate(0)"/><path class="a" d="M3613.807,4193h-7.363a1.444,1.444,0,0,0-1.444,1.443v13.138a1.444,1.444,0,0,0,1.444,1.444h7.363a1.444,1.444,0,0,0,1.444-1.444v-13.138A1.444,1.444,0,0,0,3613.807,4193Zm-1.444,13.138h-4.475v-10.25h4.475Z" transform="translate(-118.564 -43.637)"/><path class="a" d="M3734.807,4193h-7.363a1.444,1.444,0,0,0-1.444,1.443v13.138a1.444,1.444,0,0,0,1.444,1.444h7.363a1.444,1.444,0,0,0,1.444-1.444v-13.138A1.444,1.444,0,0,0,3734.807,4193Zm-1.444,13.138h-4.476v-10.25h4.476Z" transform="translate(-222.095 -43.637)"/><path class="a" d="M3613.807,4336h-7.363a1.444,1.444,0,0,0-1.444,1.443v13.138a1.444,1.444,0,0,0,1.444,1.444h7.363a1.444,1.444,0,0,0,1.444-1.444v-13.138A1.444,1.444,0,0,0,3613.807,4336Zm-1.444,13.138h-4.475v-10.25h4.475Z" transform="translate(-118.564 -165.992)"/><path class="a" d="M3734.807,4336h-7.363a1.444,1.444,0,0,0-1.444,1.443v13.138a1.444,1.444,0,0,0,1.444,1.444h7.363a1.444,1.444,0,0,0,1.444-1.444v-13.138A1.444,1.444,0,0,0,3734.807,4336Zm-1.444,13.138h-4.476v-10.25h4.476Z" transform="translate(-222.095 -165.992)"/></g></svg>