<svg xmlns="http://www.w3.org/2000/svg" width="307.757" height="87.251" viewBox="0 0 307.757 87.251"><defs><style>.a{fill:#454142;}.b{fill:#fff;}</style></defs><rect class="a" width="307.757" height="87.251" rx="10" transform="translate(0 0)"/><g transform="translate(44.041 19.872)"><path class="b" d="M315.041,246.137a6.872,6.872,0,0,1-2.817-.569,5.289,5.289,0,0,1-2.141-1.756h-.173a21.443,21.443,0,0,1,.173,2.622v6.506h-2.394V230.046h1.947l.33,2.16h.117a5.588,5.588,0,0,1,2.149-1.872,6.47,6.47,0,0,1,2.809-.575,5.831,5.831,0,0,1,4.854,2.149,11.453,11.453,0,0,1-.027,12.075,5.878,5.878,0,0,1-4.827,2.154m-.346-14.346a4.251,4.251,0,0,0-3.5,1.335,6.926,6.926,0,0,0-1.112,4.272v.531c0,2.224.369,3.808,1.112,4.766a4.215,4.215,0,0,0,3.559,1.437,3.712,3.712,0,0,0,3.21-1.655,7.874,7.874,0,0,0,1.162-4.575,7.54,7.54,0,0,0-1.162-4.532,3.819,3.819,0,0,0-3.269-1.579" transform="translate(-140.584 -209.061)"/><rect class="b" width="2.393" height="22.437" transform="translate(184.167 14.352)"/><path class="b" d="M343.778,245.854,343.3,243.6h-.114a6.58,6.58,0,0,1-2.356,2.011,7.1,7.1,0,0,1-2.933.532,5.28,5.28,0,0,1-3.686-1.213,4.408,4.408,0,0,1-1.331-3.447q0-4.788,7.652-5.016l2.683-.09V235.4a3.965,3.965,0,0,0-.8-2.739,3.272,3.272,0,0,0-2.558-.889,10.474,10.474,0,0,0-4.47,1.207l-.734-1.83a11.285,11.285,0,0,1,2.558-.995,11.139,11.139,0,0,1,2.791-.361,6.033,6.033,0,0,1,4.188,1.25,5.261,5.261,0,0,1,1.362,4.032v10.783Zm-5.4-1.691a4.88,4.88,0,0,0,3.508-1.219,4.548,4.548,0,0,0,1.277-3.435v-1.432l-2.394.106a8.77,8.77,0,0,0-4.115.883,2.679,2.679,0,0,0-1.262,2.447,2.47,2.47,0,0,0,.787,1.974,3.25,3.25,0,0,0,2.2.676" transform="translate(-143.459 -209.065)"/><path class="b" d="M348.755,230.083h2.564l3.46,9.006a35.06,35.06,0,0,1,1.415,4.463h.114c.125-.494.389-1.33.785-2.521s1.7-4.836,3.915-10.948h2.567l-6.794,17.991a8.973,8.973,0,0,1-2.356,3.787,5.011,5.011,0,0,1-3.309,1.117,9.862,9.862,0,0,1-2.162-.245v-1.915a8.581,8.581,0,0,0,1.773.175c1.647,0,2.817-.931,3.519-2.776l.878-2.245Z" transform="translate(-145.27 -209.098)"/><path class="b" d="M264.354,231.587a5.56,5.56,0,0,1,2.346,4.462c0,2.442-1.388,3.6-2.776,4.692a2.326,2.326,0,0,0-.926,1.623,1.819,1.819,0,0,0,.862,1.42l1.189.92c1.457,1.229,2.776,2.351,2.776,4.633,0,3.1-3.008,6.245-8.692,6.245-4.8,0-7.107-2.277-7.107-4.729a4.753,4.753,0,0,1,2.545-4.032c2.048-1.249,4.827-1.42,6.315-1.52a3.46,3.46,0,0,1-.992-2.246,2.944,2.944,0,0,1,.329-1.287c-.367.033-.726.059-1.058.059a5.224,5.224,0,0,1-5.488-5.187,5.938,5.938,0,0,1,2.115-4.426,9.023,9.023,0,0,1,5.92-1.82h6.807l-2.115,1.192Zm-2.349,14.675a4.727,4.727,0,0,0-.758-.037,13.28,13.28,0,0,0-3.468.532c-.728.267-2.843,1.054-2.843,3.4s2.282,4.038,5.817,4.038c3.171,0,4.859-1.532,4.859-3.574,0-1.692-1.093-2.574-3.606-4.362m.96-6.282a3.333,3.333,0,0,0,.824-2.41c0-2.383-1.417-6.081-4.162-6.081a3.079,3.079,0,0,0-2.314,1.09,3.8,3.8,0,0,0-.729,2.442c0,2.213,1.293,5.884,4.134,5.884a3.392,3.392,0,0,0,2.247-.926" transform="translate(-134.232 -209.134)"/><path class="b" d="M241.418,245.671a7.786,7.786,0,0,1-8.051-7.788c0-4.32,3.529-8.016,8.548-8.016a7.714,7.714,0,0,1,7.883,7.788,8.062,8.062,0,0,1-8.38,8.016M245.543,243a5.978,5.978,0,0,0,.992-3.665c0-2.9-1.385-8.447-5.481-8.447a4.614,4.614,0,0,0-2.969,1.122,5.006,5.006,0,0,0-1.518,4.033c0,3.26,1.617,8.638,5.611,8.638A4.207,4.207,0,0,0,245.543,243" transform="translate(-132.102 -209.074)"/><path class="b" d="M221.23,245.671a7.787,7.787,0,0,1-8.053-7.788c0-4.32,3.531-8.016,8.548-8.016a7.711,7.711,0,0,1,7.883,7.788,8.062,8.062,0,0,1-8.379,8.016M225.353,243a5.983,5.983,0,0,0,.992-3.665c0-2.9-1.386-8.447-5.479-8.447a4.611,4.611,0,0,0-2.97,1.122,5,5,0,0,0-1.519,4.033c0,3.26,1.617,8.638,5.612,8.638A4.2,4.2,0,0,0,225.353,243" transform="translate(-129.798 -209.074)"/><path class="b" d="M207.385,244.2l-4.745,1.091a35.222,35.222,0,0,1-5.471.559c-9.16,0-12.642-6.729-12.642-12.006,0-6.436,4.945-12.4,13.405-12.4a19.165,19.165,0,0,1,5.075.7,12.918,12.918,0,0,1,4.377,2.059l-2.752,2.617-1.162.266.83-1.33a9.493,9.493,0,0,0-7.1-3.117c-5.242,0-9.192,3.985-9.192,9.788,0,6.234,4.514,12.107,11.746,12.107a9.875,9.875,0,0,0,4.212-.83v-5.341l-5.011.267,2.654-1.426h7.035l-.862.83a.745.745,0,0,0-.33.532c-.04.292-.069,1.254-.069,1.59Z" transform="translate(-126.529 -208.112)"/><path class="b" d="M276.872,243.144c-1.1-.106-1.324-.3-1.324-1.6V222.772c.008-.069.011-.143.016-.214.136-1.16.468-1.362,1.495-1.962h-4.745l-2.489,1.2h2.537v.016l0-.016v20.479c0,.665-.128.761-.894,1.761h5.871l1.228-.728c-.561-.069-1.128-.1-1.691-.166" transform="translate(-136.263 -208.016)"/><path class="b" d="M291.468,244.508c-.362.2-.724.425-1.083.6a7.738,7.738,0,0,1-3.2.623,7.01,7.01,0,0,1-4.383-1.287,8.52,8.52,0,0,1-3.357-6.952,7.466,7.466,0,0,1,7.543-7.607,6.4,6.4,0,0,1,3.4.926,5.429,5.429,0,0,1,2.3,3.256l-7.74,3.132-2.534.2c.819,4.187,3.652,6.624,6.785,6.624a8.541,8.541,0,0,0,4.021-1.154Zm-3.1-9.819c.625-.229.958-.426.958-.889a3.271,3.271,0,0,0-3.266-2.836c-1.316,0-3.784,1.021-3.784,4.58,0,.558.066,1.154.1,1.751Z" transform="translate(-137.361 -209.075)"/><path class="b" d="M296.481,230.108v2.171h-.263v-2.171H295.5v-.229h1.7v.229Z" transform="translate(-139.193 -209.075)"/><path class="b" d="M299.721,232.278v-2.2h-.013l-.67,2.2h-.207l-.673-2.2h-.01v2.2h-.24v-2.4h.412l.609,1.936h.011l.6-1.936h.418v2.4Z" transform="translate(-139.468 -209.075)"/><path class="b" d="M191.123,213.277h-1.646a11.025,11.025,0,0,0-.471-1.921h-2.38a9.932,9.932,0,0,0-.484,1.921h-1.551q0-.2,1.2-3.293a25.757,25.757,0,0,0,1.2-3.415h1.947a28.783,28.783,0,0,0,1.091,3.362,29.79,29.79,0,0,1,1.088,3.346m-2.38-2.909a28.73,28.73,0,0,1-.881-2.873h-.08q0,.2-.915,2.873Z" transform="translate(-126.536 -206.415)"/><path class="b" d="M198.753,213.277h-1.274a12.363,12.363,0,0,0-1.416-2.229,12.258,12.258,0,0,1-1.688-2.91h-.082a18.309,18.309,0,0,1,.125,2.043c0,.846.027,1.878.074,3.1h-1.266q.076-1.6.077-3.505c0-1.255-.027-2.319-.077-3.2h1.529a9.58,9.58,0,0,0,1.272,2.181,12.585,12.585,0,0,1,1.556,2.75h.077a20.238,20.238,0,0,1-.122-2.063c0-.931-.024-1.889-.074-2.868h1.29c-.05.857-.072,1.921-.072,3.2s.021,2.457.072,3.505" transform="translate(-127.522 -206.415)"/><path class="b" d="M207.162,209.688a3.778,3.778,0,0,1-.936,2.553,3.277,3.277,0,0,1-2.628,1.1q-.761,0-2.1-.064.064-1.556.066-3.505c0-1.255-.024-2.319-.066-3.2h.9c.146,0,.368-.005.66-.016s.482-.011.572-.011a3.476,3.476,0,0,1,2.7.92,3.228,3.228,0,0,1,.835,2.229m-1.407.223a2.472,2.472,0,0,0-.575-1.665,2.193,2.193,0,0,0-1.76-.681,5.159,5.159,0,0,0-.609.048q.046,1.03.048,2.154c0,.825.019,1.633.053,2.441a3.183,3.183,0,0,0,.67.069,1.933,1.933,0,0,0,1.641-.691,2.667,2.667,0,0,0,.532-1.676" transform="translate(-128.466 -206.411)"/><path class="b" d="M214.966,213.273h-1.527a10.088,10.088,0,0,0-.915-2.25,1.209,1.209,0,0,0-1.031-.425c-.2,0-.389,0-.572,0,0,.879.016,1.772.048,2.671h-1.433q.068-1.556.069-3.505c0-1.255-.024-2.319-.069-3.2h.893q.151,0,.647-.016c.328-.005.63-.011.907-.011q2.369,0,2.367,1.611a1.818,1.818,0,0,1-1.355,1.793v.074a1.642,1.642,0,0,1,.915.814,17.334,17.334,0,0,1,1.057,2.441m-1.934-4.734c0-.686-.437-1.027-1.319-1.027a4.537,4.537,0,0,0-.851.069c.037.538.053,1.229.053,2.08.191.005.348.011.481.011,1.093,0,1.636-.377,1.636-1.133" transform="translate(-129.383 -206.411)"/><path class="b" d="M223.155,209.783a3.691,3.691,0,0,1-.968,2.617,3.129,3.129,0,0,1-2.394,1.043,3.026,3.026,0,0,1-2.277-.957,3.347,3.347,0,0,1-.92-2.426,3.7,3.7,0,0,1,.968-2.622,3.155,3.155,0,0,1,2.4-1.043,3.028,3.028,0,0,1,2.277.958,3.366,3.366,0,0,1,.915,2.431m-1.42.149a2.663,2.663,0,0,0-.554-1.751,1.7,1.7,0,0,0-1.359-.67,1.554,1.554,0,0,0-1.277.681,3.025,3.025,0,0,0,.029,3.447,1.7,1.7,0,0,0,1.356.675,1.583,1.583,0,0,0,1.277-.681,2.7,2.7,0,0,0,.527-1.7" transform="translate(-130.189 -206.395)"/><path class="b" d="M227.1,213.277h-1.46c.048-1.064.066-2.234.066-3.505,0-1.255-.019-2.319-.066-3.2h1.46c-.048.867-.066,1.931-.066,3.2,0,1.292.019,2.463.066,3.505" transform="translate(-131.221 -206.415)"/><path class="b" d="M234.988,209.688a3.778,3.778,0,0,1-.936,2.553,3.278,3.278,0,0,1-2.628,1.1c-.508,0-1.211-.021-2.1-.064q.064-1.556.066-3.505c0-1.255-.024-2.319-.066-3.2h.9c.149,0,.369-.005.659-.016s.482-.011.574-.011a3.483,3.483,0,0,1,2.7.92,3.229,3.229,0,0,1,.835,2.229m-1.407.223a2.465,2.465,0,0,0-.578-1.665,2.187,2.187,0,0,0-1.764-.681,5.247,5.247,0,0,0-.606.048q.052,1.03.051,2.154c0,.825.019,1.633.053,2.441a3.178,3.178,0,0,0,.668.069,1.939,1.939,0,0,0,1.643-.691,2.667,2.667,0,0,0,.532-1.676" transform="translate(-131.641 -206.411)"/><path class="b" d="M246.06,213.277h-1.649a10.983,10.983,0,0,0-.47-1.921h-2.379a9.818,9.818,0,0,0-.486,1.921h-1.548q0-.2,1.2-3.293a25.034,25.034,0,0,0,1.2-3.415h1.949a28.23,28.23,0,0,0,1.088,3.362,29.91,29.91,0,0,1,1.093,3.346m-2.38-2.909a29.587,29.587,0,0,1-.883-2.873h-.081q0,.2-.91,2.873Z" transform="translate(-132.805 -206.415)"/><path class="b" d="M253.054,208.327a2,2,0,0,1-.918,1.813,4.043,4.043,0,0,1-2.242.591,1.828,1.828,0,0,1-.346-.017c0,.656.021,1.5.059,2.559h-1.447q.064-1.484.066-3.505c0-1.234-.024-2.309-.066-3.2h.9c.128,0,.369-.005.731-.016s.673-.011.936-.011a2.928,2.928,0,0,1,1.655.442,1.5,1.5,0,0,1,.676,1.346m-1.331.282q0-1.1-1.463-1.1a3.956,3.956,0,0,0-.771.074c.036.649.052,1.384.052,2.208.088.005.19.011.3.011,1.253,0,1.88-.4,1.88-1.191" transform="translate(-133.79 -206.411)"/><path class="b" d="M260.028,208.327a2,2,0,0,1-.915,1.813,4.052,4.052,0,0,1-2.245.591,1.766,1.766,0,0,1-.343-.017c0,.656.019,1.5.056,2.559h-1.447q.064-1.484.066-3.505c0-1.234-.024-2.309-.066-3.2h.9c.129,0,.37-.005.729-.016s.676-.011.939-.011a2.919,2.919,0,0,1,1.654.442,1.5,1.5,0,0,1,.676,1.346m-1.33.282q0-1.1-1.463-1.1a4.017,4.017,0,0,0-.774.074c.041.649.059,1.384.059,2.208.085.005.183.011.3.011,1.253,0,1.881-.4,1.881-1.191" transform="translate(-134.586 -206.411)"/><path class="b" d="M271.213,209.783a3.679,3.679,0,0,1-.967,2.617,3.13,3.13,0,0,1-2.394,1.043,3.025,3.025,0,0,1-2.277-.957,3.356,3.356,0,0,1-.918-2.426,3.7,3.7,0,0,1,.968-2.622,3.153,3.153,0,0,1,2.4-1.043,3.024,3.024,0,0,1,2.277.958,3.354,3.354,0,0,1,.914,2.431m-1.42.149a2.662,2.662,0,0,0-.55-1.751,1.7,1.7,0,0,0-1.359-.67,1.553,1.553,0,0,0-1.277.681,3.009,3.009,0,0,0,.027,3.447,1.7,1.7,0,0,0,1.356.675,1.588,1.588,0,0,0,1.279-.681,2.72,2.72,0,0,0,.524-1.7" transform="translate(-135.673 -206.395)"/><path class="b" d="M279.232,213.277h-1.274a12.613,12.613,0,0,0-1.416-2.229,12.3,12.3,0,0,1-1.691-2.91h-.082a18.369,18.369,0,0,1,.128,2.043c0,.846.027,1.878.072,3.1H273.7q.08-1.6.08-3.505c0-1.255-.027-2.319-.08-3.2h1.532a9.655,9.655,0,0,0,1.275,2.181,12.747,12.747,0,0,1,1.556,2.75h.077a18.683,18.683,0,0,1-.126-2.063c0-.931-.02-1.889-.072-2.868h1.291c-.05.857-.074,1.921-.074,3.2s.024,2.457.074,3.505" transform="translate(-136.705 -206.415)"/><g transform="translate(0 0.516)"><path class="b" d="M27.847,5.547,21.886,0,0,20.421Z" transform="translate(7.426 24.134)"/><path class="b" d="M27.847,14.874,0,0,21.886,20.421Z" transform="translate(7.426 1.856)"/><path class="b" d="M11.748,9.557a4.251,4.251,0,0,0-.111-6.126L6.137,0,0,6.5,6.137,13Z" transform="translate(31.56 16.708)"/><path class="b" d="M2.17,46.412,27.847,23.206,2.17,0A3.509,3.509,0,0,0,0,3.2v40.01a3.509,3.509,0,0,0,2.17,3.2Z" transform="translate(0)"/></g></g></svg>