<svg xmlns="http://www.w3.org/2000/svg" width="48.797" height="68.72" viewBox="0 0 48.797 68.72"><defs><style>.a{fill:#fff;}</style></defs><g transform="translate(395 -929)"><path class="a" d="M-357.042,929h-27.12A10.851,10.851,0,0,0-395,939.839v47.043a10.851,10.851,0,0,0,10.839,10.839h27.12A10.851,10.851,0,0,0-346.2,986.881V939.839A10.851,10.851,0,0,0-357.042,929Zm-27.12,2.887h27.12a7.96,7.96,0,0,1,7.951,7.951V979.1h-43.022V939.839A7.96,7.96,0,0,1-384.161,931.887Zm27.12,62.945h-27.12a7.96,7.96,0,0,1-7.951-7.951v-4.9h43.022v4.9A7.96,7.96,0,0,1-357.042,994.833Z"/><path class="a" d="M-312.419,1049.163a14.6,14.6,0,0,0,14.581-14.581A14.6,14.6,0,0,0-312.419,1020,14.6,14.6,0,0,0-327,1034.581,14.6,14.6,0,0,0-312.419,1049.163Zm0-26.275a11.707,11.707,0,0,1,11.694,11.694,11.707,11.707,0,0,1-11.694,11.694,11.707,11.707,0,0,1-11.694-11.694A11.707,11.707,0,0,1-312.419,1022.887Z" transform="translate(-58.183 -77.862)"/><ellipse class="a" cx="2.5" cy="3" rx="2.5" ry="3" transform="translate(-373.602 985.359)"/><path class="a" d="M-234.556,1069.262h4.43a1.444,1.444,0,0,0,1.444-1.444,1.444,1.444,0,0,0-1.444-1.444h-2.987v-6.086a1.444,1.444,0,0,0-1.444-1.444,1.444,1.444,0,0,0-1.444,1.444v7.53A1.444,1.444,0,0,0-234.556,1069.262Z" transform="translate(-136.045 -111.099)"/></g></svg>