<svg xmlns="http://www.w3.org/2000/svg" width="68.155" height="68.72" viewBox="0 0 68.155 68.72"><defs><style>.a{fill:#fff;}</style></defs><g transform="translate(-267 -3529.088)"><path class="a" d="M330.112,3548.547l-21.374-16.8a12.365,12.365,0,0,0-15.321,0l-21.375,16.8A13.465,13.465,0,0,0,267,3559.084v27.883a10.855,10.855,0,0,0,9.464,10.75,1.439,1.439,0,0,0,.5.09h48.228a1.439,1.439,0,0,0,.5-.09,10.855,10.855,0,0,0,9.464-10.75v-27.883A13.465,13.465,0,0,0,330.112,3548.547Zm-51.705,46.373v-25.27a9.975,9.975,0,0,1,9.963-9.963h25.414a9.975,9.975,0,0,1,9.963,9.963v25.27Zm53.86-7.953a7.967,7.967,0,0,1-5.631,7.606V3569.65a12.866,12.866,0,0,0-12.851-12.851H288.371a12.866,12.866,0,0,0-12.851,12.851v24.923a7.967,7.967,0,0,1-5.631-7.606v-27.883a10.556,10.556,0,0,1,3.939-8.266l21.374-16.8a9.43,9.43,0,0,1,11.752,0l21.374,16.8a10.555,10.555,0,0,1,3.939,8.266Z"/><path class="a" d="M383.913,3800H375.17a1.444,1.444,0,1,0,0,2.888H378.1v7.8a1.444,1.444,0,0,0,2.888,0v-7.8h2.927a1.444,1.444,0,1,0,0-2.888Z" transform="translate(-91.315 -231.794)"/><path class="a" d="M387,3899.25h-1.145v-1.391a2.6,2.6,0,1,0-5.2,0v1.391h-1.145a1.444,1.444,0,0,0,0,2.888h1.145v1.391a2.6,2.6,0,1,0,5.2,0v-1.391H387a1.444,1.444,0,0,0,0-2.888Z" transform="translate(-95.03 -313.298)"/><path class="a" d="M472.913,3800H464.17a1.444,1.444,0,1,0,0,2.888H467.1v7.8a1.444,1.444,0,0,0,2.888,0v-7.8h2.927a1.444,1.444,0,1,0,0-2.888Z" transform="translate(-167.464 -231.794)"/><path class="a" d="M476,3899.25h-1.145v-1.391a2.6,2.6,0,1,0-5.2,0v1.391h-1.145a1.444,1.444,0,0,0,0,2.888h1.145v1.391a2.6,2.6,0,1,0,5.2,0v-1.391H476a1.444,1.444,0,0,0,0-2.888Z" transform="translate(-171.179 -313.298)"/><path class="a" d="M561.913,3800H553.17a1.444,1.444,0,1,0,0,2.888H556.1v7.8a1.444,1.444,0,0,0,2.888,0v-7.8h2.927a1.444,1.444,0,1,0,0-2.888Z" transform="translate(-243.613 -231.794)"/><path class="a" d="M565,3899.25h-1.145v-1.391a2.6,2.6,0,0,0-5.2,0v1.391h-1.145a1.444,1.444,0,0,0,0,2.888h1.145v1.391a2.6,2.6,0,0,0,5.2,0v-1.391H565a1.444,1.444,0,0,0,0-2.888Z" transform="translate(-247.328 -313.298)"/></g></svg>