<svg xmlns="http://www.w3.org/2000/svg" width="84.068" height="43.5" viewBox="0 0 84.068 43.5"><defs><style>.a{fill:#fff;}</style></defs><path class="a" d="M288.175,449.3a21.6,21.6,0,0,0-17.553,2.736,30.45,30.45,0,0,0-6.721,6.947,29.287,29.287,0,0,0-2.137,3.624c-3.1,5.418-5.89,9.79-8.049,13.019-1.64,2.453-2.735,3.979-4.738,5.331-.761.514-5.1,3.327-10,2.3-6.357-1.331-11.926-8.751-10.215-16.2a13.475,13.475,0,0,1,11.4-10.171,13.864,13.864,0,0,1,14.451,8.878l5.017-7.526A21.6,21.6,0,1,0,236.2,490.967c10.142,2.554,21.1-2.832,25.559-12.937a22.162,22.162,0,0,0,22.856,13.518,21.872,21.872,0,0,0,19.233-18.954C305.147,461.484,297.346,451.934,288.175,449.3Zm7.959,21.842c-.6,7.921-8.319,11.347-8.7,11.506a13.165,13.165,0,0,1-8.732.662,13.345,13.345,0,0,1-4.772-2.691,21.176,21.176,0,0,1-5.3-6.492,27.687,27.687,0,0,1-1.905-4.024,33.356,33.356,0,0,1,3.342-6.073,19.356,19.356,0,0,1,3.859-4.444,12.288,12.288,0,0,1,13.5-2.029C291.947,459.5,296.629,464.613,296.134,471.142Z" transform="translate(-219.926 -448.19)"/></svg>